<svg id="Layer_1" data-name="Layer 1" xmlns="http://www.w3.org/2000/svg" viewBox="0 0 822.14 443.32"><title>text-banner-promos-home</title><path d="M12.18,94V93.76C12.18,66.44,33.21,45,61.6,45c19.15,0,31.47,8,39.77,19.55L81.82,79.7c-5.36-6.7-11.52-11-20.49-11C48.21,68.72,39,79.83,39,93.49v0.27c0,14.06,9.24,25,22.36,25,9.78,0,15.53-4.55,21.16-11.38L102,121.34C93.2,133.53,81.28,142.5,60.53,142.5,33.74,142.5,12.18,122,12.18,94Z" transform="translate(-9.5 -45.01)" style="fill:#fff"/><path d="M113.15,46.89h26V82h33.34V46.89h26v93.74h-26V105H139.13v35.62h-26V46.89Z" transform="translate(-9.5 -45.01)" style="fill:#fff"/><path d="M215.05,46.89h75.39V69H240.76V83.18h45v20.49h-45v14.86h50.35v22.1H215.05V46.89Z" transform="translate(-9.5 -45.01)" style="fill:#fff"/><path d="M301.16,94V93.76c0-27.32,21-48.74,49.41-48.74,19.15,0,31.47,8,39.77,19.55L370.79,79.7c-5.36-6.7-11.52-11-20.49-11-13.12,0-22.36,11.11-22.36,24.77v0.27c0,14.06,9.24,25,22.36,25,9.78,0,15.53-4.55,21.16-11.38L391,121.34c-8.84,12.19-20.76,21.16-41.51,21.16C322.72,142.5,301.16,122,301.16,94Z" transform="translate(-9.5 -45.01)" style="fill:#fff"/><path d="M402.12,46.89h26v38l32.27-38h30.8L455.69,87.2l36.69,53.43h-31.2l-23.57-34.82-9.51,10.58v24.24h-26V46.89Z" transform="translate(-9.5 -45.01)" style="fill:#fff"/><path d="M533.75,94V93.76c0-26.92,21.69-48.74,50.62-48.74s50.35,21.56,50.35,48.48v0.27c0,26.92-21.69,48.74-50.62,48.74S533.75,120.94,533.75,94Zm74.45,0V93.76c0-13.53-9.78-25.31-24.1-25.31s-23.7,11.52-23.7,25v0.27c0,13.52,9.78,25.31,24,25.31S608.21,107.55,608.21,94Z" transform="translate(-9.5 -45.01)" style="fill:#fff"/><path d="M647,99.52V46.89h26.38V99c0,13.52,6.83,20,17.27,20S708,112.77,708,99.65V46.89h26.38v52c0,30.26-17.27,43.52-43.92,43.52S647,128.84,647,99.52Z" transform="translate(-9.5 -45.01)" style="fill:#fff"/><path d="M772.65,69.65H744.53V46.89h82.22V69.65H798.63v71h-26v-71Z" transform="translate(-9.5 -45.01)" style="fill:#fff"/><path d="M9.5,336.87v-0.33c0-33.63,25.88-60,60.83-60,23.57,0,38.74,9.89,49,24.07L95.21,319.23C88.62,311,81,305.71,70,305.71c-16.15,0-27.53,13.68-27.53,30.5v0.33c0,17.31,11.37,30.83,27.53,30.83,12,0,19.12-5.6,26-14l24.07,17.14c-10.88,15-25.55,26-51.1,26C36,396.54,9.5,371.32,9.5,336.87Z" transform="translate(-9.5 -45.01)" style="fill:#fff"/><path d="M132.3,343.62V278.84h32.47V343c0,16.65,8.41,24.56,21.26,24.56s21.26-7.58,21.26-23.74V278.84h32.47v64c0,37.25-21.26,53.57-54.07,53.57S132.3,379.72,132.3,343.62Z" transform="translate(-9.5 -45.01)" style="fill:#fff"/><path d="M258.73,278.84h54.56c17.64,0,29.84,4.62,37.58,12.53,6.76,6.59,10.22,15.49,10.22,26.87v0.33c0,17.64-9.4,29.34-23.74,35.44l27.53,40.22H328l-23.24-34.95h-14v34.95h-32V278.84Zm53.08,55.39c10.88,0,17.14-5.27,17.14-13.68v-0.33c0-9.07-6.59-13.68-17.31-13.68H290.71v27.69h21.1Z" transform="translate(-9.5 -45.01)" style="fill:#fff"/><path d="M377.25,278.84h54.56c17.64,0,29.84,4.62,37.58,12.53,6.76,6.59,10.22,15.49,10.22,26.87v0.33c0,17.64-9.4,29.34-23.74,35.44l27.53,40.22H446.48l-23.24-34.95h-14v34.95h-32V278.84Zm53.08,55.39c10.88,0,17.14-5.27,17.14-13.68v-0.33c0-9.07-6.59-13.68-17.31-13.68H409.23v27.69h21.1Z" transform="translate(-9.5 -45.01)" style="fill:#fff"/><path d="M495.77,278.84h92.81V306H527.42v17.47h55.39v25.22H527.42V367h62v27.2H495.77V278.84Z" transform="translate(-9.5 -45.01)" style="fill:#fff"/><path d="M605.72,278.84h29.84l47.47,61v-61h31.65V394.23h-28l-49.29-63.3v63.3H605.72V278.84Z" transform="translate(-9.5 -45.01)" style="fill:#fff"/><path d="M763.3,306.86H728.68v-28H829.9v28H795.28v87.37h-32V306.86Z" transform="translate(-9.5 -45.01)" style="fill:#fff"/><path d="M17.89,407.83H51.71c20,0,32.81,10.26,32.81,27.74v0.23c0,18.6-14.32,28.41-33.94,28.41H39.76v22.55H17.89V407.83Zm32.25,39.24c7.78,0,12.52-4.06,12.52-10.26v-0.22c0-6.77-4.74-10.37-12.63-10.37H39.76v20.86H50.13Z" transform="translate(-9.5 -45.01)" style="fill:#fff"/><path d="M93.76,407.83h37.32c12.06,0,20.41,3.16,25.71,8.57,4.62,4.51,7,10.6,7,18.38V435c0,12.06-6.43,20.07-16.24,24.24l18.83,27.51H141.11l-15.9-23.9h-9.58v23.9H93.76V407.83Zm36.3,37.88c7.44,0,11.73-3.61,11.73-9.36v-0.22c0-6.2-4.51-9.36-11.84-9.36H115.63v18.94h14.43Z" transform="translate(-9.5 -45.01)" style="fill:#fff"/><path d="M172.11,447.52V447.3c0-22.66,18.27-41,42.62-41s42.39,18.15,42.39,40.81v0.23c0,22.66-18.27,41-42.62,41S172.11,470.18,172.11,447.52Zm62.69,0V447.3c0-11.39-8.23-21.31-20.29-21.31s-20,9.7-20,21.08v0.23c0,11.39,8.23,21.31,20.18,21.31S234.8,458.91,234.8,447.52Z" transform="translate(-9.5 -45.01)" style="fill:#fff"/><path d="M268.51,407.83h23.11l18.83,30.55,18.83-30.55h23.11v78.92H330.63V441.43l-20.18,30.89H310l-20.07-30.67v45.1H268.51V407.83Z" transform="translate(-9.5 -45.01)" style="fill:#fff"/><path d="M363.66,447.52V447.3c0-22.66,18.27-41,42.62-41s42.39,18.15,42.39,40.81v0.23c0,22.66-18.26,41-42.62,41S363.66,470.18,363.66,447.52Zm62.69,0V447.3c0-11.39-8.23-21.31-20.29-21.31s-20,9.7-20,21.08v0.23c0,11.39,8.23,21.31,20.18,21.31S426.34,458.91,426.34,447.52Z" transform="translate(-9.5 -45.01)" style="fill:#fff"/><path d="M479.33,427H455.65V407.83h69.23V427H501.2v59.76H479.33V427Z" transform="translate(-9.5 -45.01)" style="fill:#fff"/><path d="M534.91,407.83h22v78.92h-22V407.83Z" transform="translate(-9.5 -45.01)" style="fill:#fff"/><path d="M568.62,447.52V447.3c0-22.66,18.27-41,42.62-41s42.39,18.15,42.39,40.81v0.23c0,22.66-18.27,41-42.62,41S568.62,470.18,568.62,447.52Zm62.69,0V447.3c0-11.39-8.23-21.31-20.29-21.31s-20,9.7-20,21.08v0.23c0,11.39,8.23,21.31,20.18,21.31S631.3,458.91,631.3,447.52Z" transform="translate(-9.5 -45.01)" style="fill:#fff"/><path d="M665,407.83h20.41l32.47,41.72V407.83h21.65v78.92H720.37l-33.71-43.29v43.29H665V407.83Z" transform="translate(-9.5 -45.01)" style="fill:#fff"/><path d="M747.53,475l12.18-14.54c7.78,6.2,16.46,9.47,25.59,9.47,5.86,0,9-2,9-5.41v-0.23c0-3.27-2.59-5.07-13.3-7.55-16.8-3.83-29.77-8.57-29.77-24.8v-0.23c0-14.66,11.61-25.25,30.55-25.25,13.42,0,23.9,3.61,32.47,10.48l-10.94,15.45c-7.22-5.07-15.11-7.78-22.1-7.78-5.3,0-7.89,2.25-7.89,5.07v0.23c0,3.61,2.71,5.19,13.64,7.67,18.15,3.95,29.43,9.81,29.43,24.58v0.23c0,16.12-12.74,25.71-31.91,25.71C770.53,488.11,757.23,483.71,747.53,475Z" transform="translate(-9.5 -45.01)" style="fill:#fff"/><path d="M298.68,210.88v-0.22c0-22.44,18.09-40.64,42.2-40.64s42,18,42,40.42v0.22c0,22.44-18.09,40.64-42.2,40.64S298.68,233.32,298.68,210.88Zm62.08,0v-0.22c0-11.28-8.15-21.1-20.1-21.1s-19.76,9.6-19.76,20.88v0.22c0,11.28,8.15,21.1,20,21.1S360.76,222.15,360.76,210.88Z" transform="translate(-9.5 -45.01)" style="fill:#fff"/><path d="M393.14,215.45V171.58h22V215c0,11.28,5.69,16.64,14.4,16.64s14.4-5.14,14.4-16.08v-44h22v43.32c0,25.23-14.4,36.29-36.62,36.29S393.14,239.9,393.14,215.45Z" transform="translate(-9.5 -45.01)" style="fill:#fff"/><path d="M478.78,171.58h37c11.95,0,20.21,3.13,25.46,8.49,4.58,4.47,6.92,10.49,6.92,18.2v0.22c0,11.95-6.36,19.87-16.08,24l18.65,27.24h-25l-15.74-23.67h-9.49v23.67H478.78V171.58Zm36,37.51c7.37,0,11.61-3.57,11.61-9.27V199.6c0-6.14-4.47-9.27-11.72-9.27H500.44v18.76h14.29Z" transform="translate(-9.5 -45.01)" style="fill:#fff"/><polygon points="560.46 147.75 560.46 184.75 822.14 166.49 560.46 147.75" style="fill:#fff"/><polygon points="263.48 148.42 263.48 185.42 1.8 167.15 263.48 148.42" style="fill:#fff"/></svg>