<?xml version="1.0" encoding="utf-8"?>
<!-- Generator: Adobe Illustrator 21.1.0, SVG Export Plug-In . SVG Version: 6.00 Build 0)  -->
<svg version="1.1" id="Layer_1" xmlns="http://www.w3.org/2000/svg" xmlns:xlink="http://www.w3.org/1999/xlink" x="0px" y="0px"
	 viewBox="0 0 840 533" style="enable-background:new 0 0 840 533;" xml:space="preserve">
<style type="text/css">
	.st0{fill:#FFFFFF;}
	.st1{fill:none;stroke:#FFFFFF;stroke-width:2;stroke-miterlimit:10;}
</style>
<path class="st0" d="M6.6,140.4h43.8c10.7,0,18.3,2.7,23.3,7.7c3.4,3.4,5.5,7.9,5.5,13.8v0.2c0,9.9-5.6,15.7-13.2,19
	c10.4,3.4,17,9.3,17,20.9v0.2c0,14.6-12,23.5-32.3,23.5h-44V140.4z M44.5,174.5c7.2,0,11.2-2.4,11.2-7.4v-0.2
	c0-4.6-3.7-7.3-10.7-7.3H29.6v15H44.5z M47.9,206.8c7.2,0,11.3-2.8,11.3-7.8v-0.2c0-4.6-3.7-7.7-11.6-7.7H29.6v15.7H47.9z"/>
<path class="st0" d="M81.5,183.4v-0.2c0-24.5,19.8-44.4,46.1-44.4s45.9,19.6,45.9,44.2v0.2c0,24.5-19.8,44.4-46.1,44.4
	C101,227.5,81.5,207.9,81.5,183.4z M149.3,183.4v-0.2c0-12.3-8.9-23.1-22-23.1c-12.9,0-21.6,10.5-21.6,22.8v0.2
	c0,12.3,8.9,23.1,21.8,23.1C140.7,206.2,149.3,195.7,149.3,183.4z"/>
<path class="st0" d="M176.4,140.4h22.1l35.1,45.1v-45.1h23.4v85.4h-20.7L199.8,179v46.8h-23.4V140.4z"/>
<path class="st0" d="M261.7,188.4v-47.9h24v47.5c0,12.3,6.2,18.2,15.7,18.2s15.7-5.6,15.7-17.6v-48.1h24v47.3
	c0,27.6-15.7,39.6-40,39.6S261.7,215.1,261.7,188.4z"/>
<path class="st0" d="M339.4,213.1l13.2-15.7c8.4,6.7,17.8,10.2,27.7,10.2c6.3,0,9.8-2.2,9.8-5.9v-0.2c0-3.5-2.8-5.5-14.4-8.2
	c-18.2-4.1-32.2-9.3-32.2-26.8v-0.2c0-15.9,12.6-27.3,33.1-27.3c14.5,0,25.9,3.9,35.1,11.3L399.8,167c-7.8-5.5-16.3-8.4-23.9-8.4
	c-5.7,0-8.5,2.4-8.5,5.5v0.2c0,3.9,2.9,5.6,14.8,8.3c19.6,4.3,31.8,10.6,31.8,26.6v0.2c0,17.4-13.8,27.8-34.5,27.8
	C364.3,227.3,349.9,222.5,339.4,213.1z"/>
<path class="st0" d="M440.4,140.4h43.8c10.7,0,18.3,2.7,23.3,7.7c3.4,3.4,5.5,7.9,5.5,13.8v0.2c0,9.9-5.6,15.7-13.2,19
	c10.4,3.4,17,9.3,17,20.9v0.2c0,14.6-12,23.5-32.3,23.5h-44V140.4z M478.4,174.5c7.2,0,11.2-2.4,11.2-7.4v-0.2
	c0-4.6-3.7-7.3-10.7-7.3h-15.4v15H478.4z M481.8,206.8c7.2,0,11.3-2.8,11.3-7.8v-0.2c0-4.6-3.7-7.7-11.6-7.7h-18.1v15.7H481.8z"/>
<path class="st0" d="M517.2,188.4v-47.9h24v47.5c0,12.3,6.2,18.2,15.7,18.2s15.7-5.6,15.7-17.6v-48.1h24v47.3
	c0,27.6-15.7,39.6-40,39.6C532.4,227.4,517.2,215.1,517.2,188.4z"/>
<path class="st0" d="M598.4,183.4v-0.2c0-24.9,19.2-44.4,45-44.4c17.4,0,28.7,7.3,36.2,17.8l-17.8,13.8c-4.9-6.1-10.5-10-18.7-10
	c-12,0-20.4,10.1-20.4,22.6v0.2c0,12.8,8.4,22.8,20.4,22.8c8.9,0,14.2-4.1,19.3-10.4l17.8,12.7c-8.1,11.1-18.9,19.3-37.8,19.3
	C618,227.5,598.4,208.9,598.4,183.4z"/>
<path class="st0" d="M681,140.4h23.7v34.6l29.4-34.6h28.1l-32.3,36.7l33.4,48.7h-28.4l-21.5-31.7l-8.7,9.6v22.1H681V140.4z"/>
<path class="st0" d="M754.2,213.1l13.2-15.7c8.4,6.7,17.8,10.2,27.7,10.2c6.3,0,9.8-2.2,9.8-5.9v-0.2c0-3.5-2.8-5.5-14.4-8.2
	c-18.2-4.1-32.2-9.3-32.2-26.8v-0.2c0-15.9,12.6-27.3,33.1-27.3c14.5,0,25.9,3.9,35.1,11.3L814.6,167c-7.8-5.5-16.3-8.4-23.9-8.4
	c-5.7,0-8.5,2.4-8.5,5.5v0.2c0,3.9,2.9,5.6,14.8,8.3c19.6,4.3,31.8,10.6,31.8,26.6v0.2c0,17.4-13.8,27.8-34.5,27.8
	C779.1,227.3,764.7,222.5,754.2,213.1z"/>
<g>
	<path class="st0" d="M4.6,273.5h30.5l18.2,60.3l20.1-60.6h24.9l20.1,60.6l18.2-60.3h29.9l-34.9,105h-25.2l-21-60l-20.9,60H39.5
		L4.6,273.5z"/>
	<path class="st0" d="M164.6,273.5h83.9v24.6h-55.3v15.8h50.1v22.8h-50.1v16.5h56v24.6h-84.6V273.5z"/>
	<path class="st0" d="M256.5,273.5h83.9v24.6h-55.3v15.8h50.1v22.8h-50.1v16.5h56v24.6h-84.6V273.5z"/>
	<path class="st0" d="M349.4,273.5h28.9v42.3l35.9-42.3h34.3L409,318.3l40.8,59.5h-34.7l-26.2-38.7l-10.6,11.8v27h-28.9V273.5z"/>
	<path class="st0" d="M461.7,273.5h40.2c37.3,0,58.9,21.5,58.9,51.6v0.3c0,30.1-21.9,52.4-59.5,52.4h-39.6V273.5z M502.4,352.2
		c17.3,0,28.8-9.5,28.8-26.4v-0.3c0-16.7-11.5-26.4-28.8-26.4h-11.8v53H502.4z"/>
	<path class="st0" d="M595.3,272.8h27.9l44.4,105h-31l-7.6-18.6h-40.2l-7.5,18.6h-30.4L595.3,272.8z M620.6,336.7L609,307
		l-11.8,29.7H620.6z"/>
	<path class="st0" d="M677.3,338.8l-39.6-65.3h32.9l21.5,38l21.6-38h32.3l-39.6,64.8v39.5h-29.1V338.8z"/>
	<path class="st0" d="M735.5,362.3l16.1-19.2c10.3,8.2,21.8,12.5,33.8,12.5c7.7,0,11.9-2.7,11.9-7.2v-0.3c0-4.3-3.4-6.7-17.6-10
		c-22.2-5.1-39.3-11.3-39.3-32.8v-0.3c0-19.4,15.3-33.4,40.4-33.4c17.7,0,31.6,4.8,42.9,13.9L809.3,306c-9.5-6.7-20-10.3-29.2-10.3
		c-7,0-10.4,3-10.4,6.7v0.3c0,4.8,3.6,6.9,18,10.1c24,5.2,38.9,13,38.9,32.5v0.3c0,21.3-16.8,34-42.2,34
		C765.9,379.6,748.3,373.8,735.5,362.3z"/>
</g>
<polygon class="st0" points="629,75.5 629,95.5 836,85.5 "/>
<polygon class="st0" points="216.7,95.5 216.7,75.5 8.9,85.5 "/>
<line class="st1" x1="5" y1="249.5" x2="833.8" y2="249.5"/>
<g>
	<path class="st0" d="M255.7,47.8H274l29.1,68.9h-20.3l-5-12.2h-26.4l-4.9,12.2h-20L255.7,47.8z M272.4,89.7l-7.6-19.5L257,89.7
		H272.4z"/>
	<path class="st0" d="M299.2,86.7V48.3h19.3v38c0,9.9,5,14.6,12.6,14.6c7.6,0,12.6-4.5,12.6-14.1V48.3h19.3v37.9
		c0,22.1-12.6,31.8-32.1,31.8C311.4,118,299.2,108.1,299.2,86.7z"/>
	<path class="st0" d="M365.9,82.7v-0.2c0-20,15.6-35.6,36.9-35.6c12,0,20.5,3.7,27.8,10l-11.1,13.4c-4.9-4.1-9.8-6.5-16.5-6.5
		c-9.9,0-17.5,8.3-17.5,18.8v0.2c0,11.1,7.7,19,18.6,19c4.6,0,8.1-1,11-2.8v-8.3h-13.5V76.7h31.5v30.8c-7.2,6-17.3,10.6-29.7,10.6
		C381.9,118.1,365.9,103.4,365.9,82.7z"/>
	<path class="st0" d="M436.7,86.7V48.3H456v38c0,9.9,5,14.6,12.6,14.6c7.6,0,12.6-4.5,12.6-14.1V48.3h19.3v37.9
		c0,22.1-12.6,31.8-32.1,31.8S436.7,108.1,436.7,86.7z"/>
	<path class="st0" d="M500.7,106.6L511.3,94c6.7,5.4,14.3,8.2,22.2,8.2c5.1,0,7.8-1.8,7.8-4.7v-0.2c0-2.8-2.2-4.4-11.5-6.6
		c-14.6-3.3-25.8-7.4-25.8-21.5V69c0-12.7,10.1-21.9,26.5-21.9c11.6,0,20.7,3.1,28.2,9.1l-9.5,13.4c-6.3-4.4-13.1-6.7-19.2-6.7
		c-4.6,0-6.8,2-6.8,4.4v0.2c0,3.1,2.3,4.5,11.8,6.6c15.7,3.4,25.5,8.5,25.5,21.3v0.2c0,14-11.1,22.3-27.7,22.3
		C520.6,117.9,509.1,114.1,500.7,106.6z"/>
	<path class="st0" d="M580.5,64.9H560V48.3h60v16.6h-20.5v51.8h-19V64.9z"/>
</g>
<g>
	<path class="st0" d="M24.5,408.9H7.3V395h50.3v13.9H40.4v43.5H24.5V408.9z"/>
	<path class="st0" d="M58.8,395h15.9v21.5h20.4V395H111v57.4H95.1v-21.8H74.7v21.8H58.8V395z"/>
	<path class="st0" d="M115.4,395h27.1c8.8,0,14.8,2.3,18.7,6.2c3.4,3.3,5.1,7.7,5.1,13.4v0.2c0,8.8-4.7,14.6-11.8,17.6l13.7,20
		h-18.4L138.3,435h-0.2h-6.8v17.4h-15.9V395z M141.8,422.5c5.4,0,8.5-2.6,8.5-6.8v-0.2c0-4.5-3.3-6.8-8.6-6.8h-10.4v13.8H141.8z"/>
	<path class="st0" d="M166.5,423.8v-0.2c0-16.5,13.3-29.8,31-29.8s30.8,13.2,30.8,29.7v0.2c0,16.5-13.3,29.8-31,29.8
		C179.7,453.5,166.5,440.3,166.5,423.8z M212.1,423.8v-0.2c0-8.3-6-15.5-14.8-15.5c-8.7,0-14.5,7.1-14.5,15.3v0.2
		c0,8.3,6,15.5,14.7,15.5C206.3,439.2,212.1,432.1,212.1,423.8z"/>
	<path class="st0" d="M230.1,427.2V395h16.2v31.9c0,8.3,4.2,12.2,10.6,12.2s10.6-3.8,10.6-11.8V395h16.2v31.8
		c0,18.5-10.6,26.7-26.9,26.7C240.3,453.4,230.1,445.1,230.1,427.2z"/>
	<path class="st0" d="M285.2,423.8v-0.2c0-16.7,13.1-29.8,30.9-29.8c10.1,0,17.2,3.1,23.3,8.4l-9.3,11.2c-4.1-3.4-8.2-5.4-13.9-5.4
		c-8.3,0-14.7,7-14.7,15.7v0.2c0,9.3,6.5,15.9,15.6,15.9c3.9,0,6.8-0.8,9.2-2.4v-7H315v-11.6h26.4v25.8c-6.1,5-14.5,8.9-24.9,8.9
		C298.6,453.5,285.2,441.2,285.2,423.8z"/>
	<path class="st0" d="M344.4,395h15.9v21.5h20.4V395h15.9v57.4h-15.9v-21.8h-20.4v21.8h-15.9V395z"/>
	<path class="st0" d="M437.7,394.5H453l24.4,57.8h-17.1l-4.2-10.2h-22.1l-4.1,10.2h-16.7L437.7,394.5z M451.7,429.7l-6.4-16.3
		l-6.5,16.3H451.7z"/>
	<path class="st0" d="M476.5,427.2V395h16.2v31.9c0,8.3,4.2,12.2,10.6,12.2c6.4,0,10.6-3.8,10.6-11.8V395H530v31.8
		c0,18.5-10.6,26.7-26.9,26.7S476.5,445.1,476.5,427.2z"/>
	<path class="st0" d="M531.6,423.8v-0.2c0-16.7,13.1-29.8,30.9-29.8c10.1,0,17.2,3.1,23.3,8.4l-9.3,11.2c-4.1-3.4-8.2-5.4-13.9-5.4
		c-8.3,0-14.7,7-14.7,15.7v0.2c0,9.3,6.5,15.9,15.6,15.9c3.9,0,6.8-0.8,9.2-2.4v-7h-11.3v-11.6h26.4v25.8c-6.1,5-14.5,8.9-24.9,8.9
		C545,453.5,531.6,441.2,531.6,423.8z"/>
	<path class="st0" d="M590.1,427.2V395h16.2v31.9c0,8.3,4.2,12.2,10.6,12.2c6.4,0,10.6-3.8,10.6-11.8V395h16.2v31.8
		c0,18.5-10.6,26.7-26.9,26.7S590.1,445.1,590.1,427.2z"/>
	<path class="st0" d="M642.8,443.8l8.9-10.6c5.7,4.5,12,6.9,18.6,6.9c4.3,0,6.6-1.5,6.6-3.9V436c0-2.4-1.9-3.7-9.7-5.5
		c-12.2-2.8-21.6-6.2-21.6-18v-0.2c0-10.7,8.4-18.4,22.2-18.4c9.8,0,17.4,2.6,23.6,7.6l-8,11.2c-5.2-3.7-11-5.7-16.1-5.7
		c-3.9,0-5.7,1.6-5.7,3.7v0.2c0,2.6,2,3.8,9.9,5.6c13.2,2.9,21.4,7.1,21.4,17.9v0.2c0,11.7-9.3,18.7-23.2,18.7
		C659.5,453.3,649.8,450.1,642.8,443.8z"/>
	<path class="st0" d="M708.8,408.9h-17.2V395h50.3v13.9h-17.2v43.5h-15.9V408.9z"/>
	<path class="st0" d="M756.4,443.3l10-10c4.1,4.2,8.4,6.6,13.7,6.6c4.5,0,7.4-2.3,7.4-5.8v-0.2c0-3.7-3.4-5.9-9.3-5.9h-6.7l-2.3-8.3
		l13.2-11.9h-22V395h41.5v11.4l-13.7,11.7c8.2,1.8,14.8,6.4,14.8,16.2v0.2c0,11.6-9.3,19.1-22.1,19.1
		C769.7,453.5,761.9,449.5,756.4,443.3z"/>
	<path class="st0" d="M813.3,409.4l-9.7,2.2l-3-12.3l16.8-4.8H829v57.8h-15.7V409.4z"/>
</g>
</svg>
